<svg id="Layer_1" data-name="Layer 1" xmlns="http://www.w3.org/2000/svg" xmlns:xlink="http://www.w3.org/1999/xlink" viewBox="0 0 442.41 270.95"><defs><style>.cls-1,.cls-7{fill:none;}.cls-1{clip-rule:evenodd;}.cls-2,.cls-4{fill:#699f63;}.cls-3{fill:#333;}.cls-3,.cls-4,.cls-5{fill-rule:evenodd;}.cls-5{fill:url(#linear-gradient);}.cls-6{clip-path:url(#clip-path);}.cls-8{fill:#b4b4b4;opacity:0.66;}.cls-9{fill:url(#linear-gradient-2);}</style><linearGradient id="linear-gradient" x1="194.2" y1="279.8" x2="288.4" y2="279.8" gradientUnits="userSpaceOnUse"><stop offset="0.01"/><stop offset="0.19" stop-color="#171717"/><stop offset="0.54" stop-color="#3c3c3c"/><stop offset="0.82" stop-color="#545454"/><stop offset="1" stop-color="#5c5c5c"/></linearGradient><clipPath id="clip-path" transform="translate(-78.02 -164.27)"><path id="_Masque_" data-name="&lt;Masque&gt;" class="cls-1" d="M243.84,226.87a5.07,5.07,0,0,0-5.07,0l-42,24.25a5.07,5.07,0,0,0-2.54,4.4v48.55a5.08,5.08,0,0,0,2.54,4.4l42,24.27a5.08,5.08,0,0,0,5.08,0l42-24.27a5.08,5.08,0,0,0,2.54-4.4V255.52a5.07,5.07,0,0,0-2.54-4.4Z"/></clipPath><linearGradient id="linear-gradient-2" x1="193.55" y1="279.73" x2="290.72" y2="279.73" gradientUnits="userSpaceOnUse"><stop offset="0" stop-color="#5c5c5c"/><stop offset="0.18" stop-color="#545454"/><stop offset="0.46" stop-color="#3c3c3c"/><stop offset="0.81" stop-color="#171717"/><stop offset="0.99"/></linearGradient></defs><title>nodejs-new-black</title><path class="cls-2" d="M296.69,435.23a8.37,8.37,0,0,1-4.19-1.12l-13.34-7.89c-2-1.11-1-1.51-.36-1.74a26.6,26.6,0,0,0,6-2.74,1,1,0,0,1,1,.08l10.25,6.08a1.32,1.32,0,0,0,1.24,0l40-23.06a1.26,1.26,0,0,0,.61-1.08V357.64a1.29,1.29,0,0,0-.62-1.1l-39.94-23a1.25,1.25,0,0,0-1.23,0l-39.93,23a1.28,1.28,0,0,0-.63,1.09v46.11a1.22,1.22,0,0,0,.63,1.07l10.94,6.32c5.94,3,9.57-.53,9.57-4V361.58a1.15,1.15,0,0,1,1.16-1.15h5.07a1.15,1.15,0,0,1,1.16,1.15V407.1c0,7.93-4.32,12.47-11.83,12.47-2.31,0-4.13,0-9.2-2.5l-10.48-6a8.44,8.44,0,0,1-4.19-7.29V357.64a8.42,8.42,0,0,1,4.19-7.28l40-23.09a8.75,8.75,0,0,1,8.4,0l40,23.09a8.43,8.43,0,0,1,4.2,7.28v46.11a8.46,8.46,0,0,1-4.2,7.29l-40,23.07A8.38,8.38,0,0,1,296.69,435.23Z" transform="translate(-78.02 -164.27)"/><path class="cls-2" d="M309,403.46c-17.48,0-21.15-8-21.15-14.76a1.15,1.15,0,0,1,1.15-1.15h5.17a1.16,1.16,0,0,1,1.15,1c.78,5.26,3.11,7.91,13.68,7.91,8.42,0,12-1.9,12-6.37,0-2.57-1-4.49-14.1-5.77-10.93-1.08-17.69-3.5-17.69-12.24,0-8.06,6.79-12.87,18.19-12.87,12.8,0,19.13,4.44,19.94,14a1.16,1.16,0,0,1-1.15,1.26H321a1.15,1.15,0,0,1-1.12-.9c-1.24-5.53-4.27-7.3-12.48-7.3-9.19,0-10.26,3.2-10.26,5.6,0,2.91,1.26,3.75,13.67,5.39s18.11,3.92,18.11,12.55S321.69,403.46,309,403.46Z" transform="translate(-78.02 -164.27)"/><path class="cls-2" d="M366.64,355.11a7.7,7.7,0,1,1-7.7-7.7A7.72,7.72,0,0,1,366.64,355.11Zm-14.16,0a6.46,6.46,0,1,0,6.44-6.44A6.46,6.46,0,0,0,352.48,355.08Zm3.56-4.3h3c1,0,3,0,3,2.28a2,2,0,0,1-1.63,2.12c1.18.08,1.26.86,1.43,2a8.51,8.51,0,0,0,.45,2.28h-1.83c0-.41-.33-2.61-.33-2.73-.12-.49-.29-.73-.9-.73h-1.51v3.46H356Zm1.63,3.79H359a1.16,1.16,0,0,0,1.3-1.22c0-1.18-.82-1.18-1.26-1.18h-1.38Z" transform="translate(-78.02 -164.27)"/><path class="cls-3" d="M173,254.83a5.11,5.11,0,0,0-2.56-4.45L128,226a5,5,0,0,0-2.33-.67h-.44a5.06,5.06,0,0,0-2.34.67L80.58,250.39A5.13,5.13,0,0,0,78,254.83l.09,65.64a2.51,2.51,0,0,0,1.28,2.21,2.46,2.46,0,0,0,2.54,0l25.17-14.41a5.15,5.15,0,0,0,2.56-4.44V273.16a5.1,5.1,0,0,1,2.55-4.43l10.72-6.17a5.09,5.09,0,0,1,2.56-.69,5,5,0,0,1,2.54.69l10.72,6.17a5.1,5.1,0,0,1,2.56,4.43v30.67a5.17,5.17,0,0,0,2.56,4.44l25.17,14.41a2.49,2.49,0,0,0,2.56,0,2.56,2.56,0,0,0,1.27-2.21Z" transform="translate(-78.02 -164.27)"/><path class="cls-3" d="M376.78,164.6a2.56,2.56,0,0,0-3.81,2.23v65a1.79,1.79,0,0,1-2.69,1.55l-10.61-6.11a5.12,5.12,0,0,0-5.11,0l-42.38,24.46a5.12,5.12,0,0,0-2.56,4.43v48.92a5.12,5.12,0,0,0,2.56,4.43L354.56,334a5.12,5.12,0,0,0,5.12,0l42.38-24.47a5.12,5.12,0,0,0,2.56-4.43V183.14a5.12,5.12,0,0,0-2.62-4.47ZM372.85,289a1.28,1.28,0,0,1-.64,1.11l-14.55,8.39a1.28,1.28,0,0,1-1.28,0l-14.55-8.39a1.28,1.28,0,0,1-.64-1.11v-16.8a1.28,1.28,0,0,1,.64-1.11l14.55-8.4a1.28,1.28,0,0,1,1.28,0l14.55,8.4a1.28,1.28,0,0,1,.64,1.11Z" transform="translate(-78.02 -164.27)"/><path class="cls-3" d="M517.88,271.77a5.12,5.12,0,0,0,2.55-4.42V255.49a5.12,5.12,0,0,0-2.55-4.43l-42.1-24.45a5.12,5.12,0,0,0-5.13,0l-42.36,24.46a5.12,5.12,0,0,0-2.56,4.43v48.91a5.11,5.11,0,0,0,2.58,4.45l42.1,24a5.11,5.11,0,0,0,5,0l25.46-14.15a2.56,2.56,0,0,0,0-4.46L458.3,289.79a2.56,2.56,0,0,1-1.29-2.22V272.25a2.56,2.56,0,0,1,1.28-2.22l13.27-7.65a2.55,2.55,0,0,1,2.55,0L487.39,270a2.56,2.56,0,0,1,1.28,2.22v12.06a2.56,2.56,0,0,0,3.84,2.21Z" transform="translate(-78.02 -164.27)"/><path class="cls-4" d="M472.59,269.48a1,1,0,0,1,1,0l8.13,4.69a1,1,0,0,1,.49.85v9.39a1,1,0,0,1-.49.85L473.57,290a1,1,0,0,1-1,0l-8.12-4.69a1,1,0,0,1-.49-.85V275a1,1,0,0,1,.49-.85Z" transform="translate(-78.02 -164.27)"/><path id="_Tracé_" data-name="&lt;Tracé&gt;" class="cls-5" d="M238.76,226.87a5.07,5.07,0,0,1,5.07,0l42,24.25a5.07,5.07,0,0,1,2.54,4.4v48.55a5.08,5.08,0,0,1-2.54,4.4l-42,24.27a5.08,5.08,0,0,1-5.08,0l-42-24.27a5.08,5.08,0,0,1-2.54-4.4V255.52a5.07,5.07,0,0,1,2.54-4.4Z" transform="translate(-78.02 -164.27)"/><g class="cls-6"><path class="cls-7" d="M238.71,226.87l-42.07,24.25a5.17,5.17,0,0,0-2.64,4.4v48.55a5,5,0,0,0,1.18,3.18l47.3-80.91A5.12,5.12,0,0,0,238.71,226.87Z" transform="translate(-78.02 -164.27)"/><path class="cls-7" d="M242.75,333.17a5.1,5.1,0,0,0,1-.43l41.93-24.27a4.9,4.9,0,0,0,2.34-4.4V255.52a5.27,5.27,0,0,0-1.07-3.27Z" transform="translate(-78.02 -164.27)"/><path class="cls-8" d="M285.65,251.12l-41.84-24.25a5.05,5.05,0,0,0-1.33-.53l-47.3,80.91a5.33,5.33,0,0,0,1.43,1.21l42.09,24.27a5,5,0,0,0,4,.43l44.19-80.91A4.45,4.45,0,0,0,285.65,251.12Z" transform="translate(-78.02 -164.27)"/><path class="cls-7" d="M197.11,250.85l-.48.27a5.17,5.17,0,0,0-2.64,4.4v48.55a5.15,5.15,0,0,0,2.61,4.4l42.09,24.27a5,5,0,0,0,3.66.54Z" transform="translate(-78.02 -164.27)"/><path class="cls-7" d="M288,255.52a4.91,4.91,0,0,0-2.35-4.4l-41.84-24.25a5.05,5.05,0,0,0-1.17-.49L288,303.88Z" transform="translate(-78.02 -164.27)"/><path class="cls-9" d="M243.73,332.74l41.93-24.27a4.9,4.9,0,0,0,2.34-4.4v-.19l-45.36-77.49a5.12,5.12,0,0,0-3.93.49l-41.59,24,45.25,82.43A5.08,5.08,0,0,0,243.73,332.74Z" transform="translate(-78.02 -164.27)"/></g></svg>